<svg xmlns="http://www.w3.org/2000/svg" data-name="Layer 1" viewBox="0 0 63.36 46.462500000000006" x="0px" y="0px"><defs><style>
      .cls-1 {
        stroke-width: 0px;
      }
    </style></defs><g data-name="Group 11551"><g data-name="Path 7486"><path class="cls-1" d="m60.39,20.06H1.5c-.83,0-1.5-.67-1.5-1.5s.67-1.5,1.5-1.5h58.89c.83,0,1.5.67,1.5,1.5s-.67,1.5-1.5,1.5Z"/></g><g data-name="Path 7487"><path class="cls-1" d="m46.85,37.17c-.35,0-.71-.12-1-.38-.62-.55-.67-1.5-.12-2.12l14.13-15.87L45.72,2.48c-.54-.63-.47-1.57.15-2.12.63-.54,1.57-.48,2.12.15l15.01,17.31c.49.57.49,1.42-.01,1.98l-15.01,16.85c-.3.33-.71.5-1.12.5Z"/></g></g><text x="0" y="52.17" fill="#000000" font-size="5px" font-weight="bold" font-family="'Helvetica Neue', Helvetica, Arial-Unicode, Arial, Sans-serif">Created by Smarty</text><text x="0" y="57.17" fill="#000000" font-size="5px" font-weight="bold" font-family="'Helvetica Neue', Helvetica, Arial-Unicode, Arial, Sans-serif">from the Noun Project</text></svg>